<mxfile host="65bd71144e">
    <diagram id="SCwWImXh0g1ssft25ZQ3" name="第 1 页">
        <mxGraphModel dx="2278" dy="1562" grid="1" gridSize="10" guides="1" tooltips="1" connect="1" arrows="1" fold="1" page="1" pageScale="1" pageWidth="3300" pageHeight="2339" math="0" shadow="0">
            <root>
                <mxCell id="0"/>
                <mxCell id="1" parent="0"/>
                <mxCell id="22" value="" style="rounded=0;whiteSpace=wrap;html=1;glass=0;sketch=0;fontSize=30;gradientColor=none;" vertex="1" parent="1">
                    <mxGeometry x="330" y="20" width="1880" height="1260" as="geometry"/>
                </mxCell>
                <mxCell id="8" value="" style="rounded=0;whiteSpace=wrap;html=1;fontSize=25;gradientColor=none;glass=0;" vertex="1" parent="1">
                    <mxGeometry x="360" y="960" width="880" height="150" as="geometry"/>
                </mxCell>
                <mxCell id="9" value="Taro" style="rounded=0;whiteSpace=wrap;html=1;fontSize=25;fillColor=#1ba1e2;fontColor=#ffffff;strokeColor=#006EAF;" vertex="1" parent="1">
                    <mxGeometry x="370" y="970" width="860" height="60" as="geometry"/>
                </mxCell>
                <mxCell id="10" value="React" style="rounded=0;whiteSpace=wrap;html=1;fontSize=25;fillColor=#0050ef;fontColor=#ffffff;strokeColor=#001DBC;" vertex="1" parent="1">
                    <mxGeometry x="370" y="1040" width="130" height="60" as="geometry"/>
                </mxCell>
                <mxCell id="11" value="多平台支持" style="rounded=0;whiteSpace=wrap;html=1;fontSize=25;fillColor=#0050ef;fontColor=#ffffff;strokeColor=#001DBC;" vertex="1" parent="1">
                    <mxGeometry x="830" y="1040" width="230" height="60" as="geometry"/>
                </mxCell>
                <mxCell id="12" value="taroify" style="rounded=0;whiteSpace=wrap;html=1;fontSize=25;fillColor=#0050ef;fontColor=#ffffff;strokeColor=#001DBC;" vertex="1" parent="1">
                    <mxGeometry x="680" y="1040" width="120" height="60" as="geometry"/>
                </mxCell>
                <mxCell id="13" value="mobx" style="rounded=0;whiteSpace=wrap;html=1;fontSize=25;fillColor=#0050ef;fontColor=#ffffff;strokeColor=#001DBC;" vertex="1" parent="1">
                    <mxGeometry x="530" y="1040" width="120" height="60" as="geometry"/>
                </mxCell>
                <mxCell id="14" value="物料市场" style="rounded=0;whiteSpace=wrap;html=1;fontSize=25;fillColor=#0050ef;fontColor=#ffffff;strokeColor=#001DBC;" vertex="1" parent="1">
                    <mxGeometry x="1090" y="1040" width="140" height="60" as="geometry"/>
                </mxCell>
                <mxCell id="17" style="edgeStyle=none;html=1;exitX=0;exitY=0.5;exitDx=0;exitDy=0;fontSize=25;" edge="1" parent="1" source="15">
                    <mxGeometry relative="1" as="geometry">
                        <mxPoint x="2250.0000000000005" y="1047.2142857142858" as="targetPoint"/>
                    </mxGeometry>
                </mxCell>
                <mxCell id="15" value="底层框架" style="text;html=1;strokeColor=none;fillColor=none;align=center;verticalAlign=middle;whiteSpace=wrap;rounded=0;fontSize=30;fontStyle=1" vertex="1" parent="1">
                    <mxGeometry x="2300" y="1015" width="160" height="65" as="geometry"/>
                </mxCell>
                <mxCell id="19" value="" style="rounded=0;whiteSpace=wrap;html=1;fontSize=30;" vertex="1" parent="1">
                    <mxGeometry x="360" y="310" width="880" height="610" as="geometry"/>
                </mxCell>
                <mxCell id="20" style="edgeStyle=none;html=1;exitX=0;exitY=0.5;exitDx=0;exitDy=0;fontSize=25;" edge="1" parent="1" source="21">
                    <mxGeometry relative="1" as="geometry">
                        <mxPoint x="2250.0000000000005" y="622.2142857142858" as="targetPoint"/>
                    </mxGeometry>
                </mxCell>
                <mxCell id="21" value="业务模块" style="text;html=1;strokeColor=none;fillColor=none;align=center;verticalAlign=middle;whiteSpace=wrap;rounded=0;fontSize=30;fontStyle=1" vertex="1" parent="1">
                    <mxGeometry x="2300" y="590" width="160" height="65" as="geometry"/>
                </mxCell>
                <mxCell id="23" value="Front" style="rounded=0;whiteSpace=wrap;html=1;glass=0;sketch=0;fontSize=30;fontStyle=1;fillColor=#ffe6cc;strokeColor=#d79b00;" vertex="1" parent="1">
                    <mxGeometry x="360" y="1150" width="880" height="90" as="geometry"/>
                </mxCell>
                <mxCell id="24" value="Server" style="rounded=0;whiteSpace=wrap;html=1;glass=0;sketch=0;fontSize=30;fontStyle=1;fillColor=#ffe6cc;strokeColor=#d79b00;" vertex="1" parent="1">
                    <mxGeometry x="1290" y="1150" width="880" height="90" as="geometry"/>
                </mxCell>
                <mxCell id="25" value="" style="rounded=0;whiteSpace=wrap;html=1;glass=0;sketch=0;fontSize=30;gradientColor=none;" vertex="1" parent="1">
                    <mxGeometry x="1290" y="960" width="880" height="150" as="geometry"/>
                </mxCell>
                <mxCell id="26" value="Koa" style="rounded=0;whiteSpace=wrap;html=1;glass=0;sketch=0;fontSize=30;fillColor=#1ba1e2;fontColor=#ffffff;strokeColor=#006EAF;" vertex="1" parent="1">
                    <mxGeometry x="1300" y="970" width="860" height="60" as="geometry"/>
                </mxCell>
                <mxCell id="27" value="mySql / monogodb ?" style="rounded=0;whiteSpace=wrap;html=1;glass=0;sketch=0;fontSize=30;gradientColor=none;" vertex="1" parent="1">
                    <mxGeometry x="1310" y="1040" width="350" height="60" as="geometry"/>
                </mxCell>
                <mxCell id="29" value="" style="rounded=0;whiteSpace=wrap;html=1;fontSize=30;" vertex="1" parent="1">
                    <mxGeometry x="1290" y="310" width="880" height="610" as="geometry"/>
                </mxCell>
                <mxCell id="28" value="token" style="rounded=0;whiteSpace=wrap;html=1;glass=0;sketch=0;fontSize=30;gradientColor=none;" vertex="1" parent="1">
                    <mxGeometry x="1310" y="810" width="120" height="60" as="geometry"/>
                </mxCell>
                <mxCell id="30" value="koa-static" style="rounded=0;whiteSpace=wrap;html=1;glass=0;sketch=0;fontSize=30;fillColor=#0050ef;fontColor=#ffffff;strokeColor=#001DBC;" vertex="1" parent="1">
                    <mxGeometry x="1680" y="1040" width="190" height="60" as="geometry"/>
                </mxCell>
                <mxCell id="31" value="mockjs" style="rounded=0;whiteSpace=wrap;html=1;glass=0;sketch=0;fontSize=30;fillColor=#0050ef;fontColor=#ffffff;strokeColor=#001DBC;" vertex="1" parent="1">
                    <mxGeometry x="1890" y="1040" width="270" height="60" as="geometry"/>
                </mxCell>
                <mxCell id="32" value="mySql / monogodb ?" style="rounded=0;whiteSpace=wrap;html=1;glass=0;sketch=0;fontSize=30;fillColor=#0050ef;fontColor=#ffffff;strokeColor=#001DBC;" vertex="1" parent="1">
                    <mxGeometry x="1300" y="1040" width="360" height="60" as="geometry"/>
                </mxCell>
                <mxCell id="33" style="edgeStyle=none;html=1;exitX=0;exitY=0.5;exitDx=0;exitDy=0;fontSize=25;" edge="1" parent="1" source="34">
                    <mxGeometry relative="1" as="geometry">
                        <mxPoint x="2250" y="182.21428571428578" as="targetPoint"/>
                    </mxGeometry>
                </mxCell>
                <mxCell id="34" value="解决方案" style="text;html=1;strokeColor=none;fillColor=none;align=center;verticalAlign=middle;whiteSpace=wrap;rounded=0;fontSize=30;fontStyle=1" vertex="1" parent="1">
                    <mxGeometry x="2300" y="150" width="160" height="65" as="geometry"/>
                </mxCell>
                <mxCell id="35" value="" style="rounded=0;whiteSpace=wrap;html=1;glass=0;sketch=0;fontSize=30;gradientColor=none;" vertex="1" parent="1">
                    <mxGeometry x="360" y="40" width="1810" height="250" as="geometry"/>
                </mxCell>
                <mxCell id="36" value="微信登录" style="rounded=0;whiteSpace=wrap;html=1;glass=0;sketch=0;fontSize=30;gradientColor=none;" vertex="1" parent="1">
                    <mxGeometry x="390" y="60" width="180" height="60" as="geometry"/>
                </mxCell>
                <mxCell id="37" value="触底加载" style="rounded=0;whiteSpace=wrap;html=1;glass=0;sketch=0;fontSize=30;gradientColor=none;" vertex="1" parent="1">
                    <mxGeometry x="600" y="60" width="170" height="60" as="geometry"/>
                </mxCell>
                <mxCell id="38" value="mobx应用" style="rounded=0;whiteSpace=wrap;html=1;glass=0;sketch=0;fontSize=30;gradientColor=none;" vertex="1" parent="1">
                    <mxGeometry x="800" y="60" width="170" height="60" as="geometry"/>
                </mxCell>
            </root>
        </mxGraphModel>
    </diagram>
</mxfile>
